<svg xmlns="http://www.w3.org/2000/svg" width="256" height="256" viewBox="0 0 256 256" version="1.1"><path d="M 88 34 L 88 36 82 36 L 76 36 76 48 L 76 60 78 60 L 80 60 80 50 L 80 40 84 40 L 88 40 88 38 L 88 36 92 36 L 96 36 96 34 L 96 32 92 32 L 88 32 88 34 M 80 78 L 80 88 82 88 L 84 88 84 78 L 84 68 82 68 L 80 68 80 78 M 84 100 L 84 104 86 104 L 88 104 88 100 L 88 96 86 96 L 84 96 84 100" stroke="none" fill="#cd85af" fill-rule="evenodd"/><path d="M 68 30 L 68 32 70 32 L 72 32 72 30 L 72 28 70 28 L 68 28 68 30 M 132 54 L 132 64 134 64 L 136 64 136 54 L 136 44 134 44 L 132 44 132 54 M 76 74 L 76 76 78 76 L 80 76 80 74 L 80 72 78 72 L 76 72 76 74 M 184 102 L 184 104 188 104 L 192 104 192 102 L 192 100 188 100 L 184 100 184 102 M 168 106 L 168 108 172 108 L 176 108 176 106 L 176 104 172 104 L 168 104 168 106 M 148 110 L 148 112 152 112 L 156 112 156 110 L 156 108 152 108 L 148 108 148 110 M 132 114 L 132 116 136 116 L 140 116 140 114 L 140 112 136 112 L 132 112 132 114 M 112 118 L 112 120 116 120 L 120 120 120 118 L 120 116 116 116 L 112 116 112 118 M 92 122 L 92 124 98 124 L 104 124 104 122 L 104 120 98 120 L 92 120 92 122 M 168 122 L 168 124 172 124 L 176 124 176 122 L 176 120 172 120 L 168 120 168 122 M 76 126 L 76 128 80 128 L 84 128 84 126 L 84 124 80 124 L 76 124 76 126 M 72 170 L 72 188 74 188 L 76 188 76 170 L 76 152 74 152 L 72 152 72 170 M 144 206 L 144 208 140 208 L 136 208 136 210 L 136 212 140 212 L 144 212 144 210 L 144 208 146 208 L 148 208 148 206 L 148 204 146 204 L 144 204 144 206 M 124 214 L 124 216 118 216 L 112 216 112 218 L 112 220 106 220 L 100 220 100 222 L 100 224 94 224 L 88 224 88 226 L 88 228 86 228 L 84 228 84 240 L 84 252 86 252 L 88 252 88 240 L 88 228 94 228 L 100 228 100 226 L 100 224 106 224 L 112 224 112 222 L 112 220 118 220 L 124 220 124 218 L 124 216 128 216 L 132 216 132 214 L 132 212 128 212 L 124 212 124 214" stroke="none" fill="#e2e2e2" fill-rule="evenodd"/><path d="M 136 16 L 136 28 138 28 L 140 28 140 26 L 140 24 148 24 L 156 24 156 14 L 156 4 146 4 L 136 4 136 16 M 80 18 L 80 20 74 20 L 68 20 68 24 L 68 28 70 28 L 72 28 72 40 L 72 52 74 52 L 76 52 76 44 L 76 36 82 36 L 88 36 88 34 L 88 32 92 32 L 96 32 96 28 L 96 24 94 24 L 92 24 92 20 L 92 16 86 16 L 80 16 80 18 M 76 66 L 76 72 78 72 L 80 72 80 66 L 80 60 78 60 L 76 60 76 66 M 132 82 L 132 100 134 100 L 136 100 136 82 L 136 64 134 64 L 132 64 132 82 M 104 92 L 104 100 106 100 L 108 100 108 102 L 108 104 110 104 L 112 104 112 96 L 112 88 110 88 L 108 88 108 86 L 108 84 106 84 L 104 84 104 92 M 152 90 L 152 96 154 96 L 156 96 156 94 L 156 92 158 92 L 160 92 160 88 L 160 84 156 84 L 152 84 152 90 M 80 90 L 80 92 78 92 L 76 92 76 94 L 76 96 78 96 L 80 96 80 102 L 80 108 82 108 L 84 108 84 98 L 84 88 82 88 L 80 88 80 90 M 192 102 L 192 104 184 104 L 176 104 176 106 L 176 108 166 108 L 156 108 156 110 L 156 112 148 112 L 140 112 140 114 L 140 116 130 116 L 120 116 120 118 L 120 120 112 120 L 104 120 104 122 L 104 124 94 124 L 84 124 84 126 L 84 128 78 128 L 72 128 72 140 L 72 152 74 152 L 76 152 76 182 L 76 212 78 212 L 80 212 80 210 L 80 208 86 208 L 92 208 92 206 L 92 204 98 204 L 104 204 104 202 L 104 200 110 200 L 116 200 116 198 L 116 196 122 196 L 128 196 128 194 L 128 192 130 192 L 132 192 132 194 L 132 196 134 196 L 136 196 136 198 L 136 200 140 200 L 144 200 144 202 L 144 204 146 204 L 148 204 148 206 L 148 208 146 208 L 144 208 144 210 L 144 212 138 212 L 132 212 132 214 L 132 216 128 216 L 124 216 124 218 L 124 220 118 220 L 112 220 112 222 L 112 224 106 224 L 100 224 100 226 L 100 228 94 228 L 88 228 88 240 L 88 252 92 252 L 96 252 96 250 L 96 248 100 248 L 104 248 104 246 L 104 244 110 244 L 116 244 116 242 L 116 240 120 240 L 124 240 124 238 L 124 236 130 236 L 136 236 136 234 L 136 232 140 232 L 144 232 144 222 L 144 212 146 212 L 148 212 148 210 L 148 208 152 208 L 156 208 156 196 L 156 184 162 184 L 168 184 168 182 L 168 180 174 180 L 180 180 180 178 L 180 176 186 176 L 192 176 192 174 L 192 172 196 172 L 200 172 200 142 L 200 112 198 112 L 196 112 196 110 L 196 108 198 108 L 200 108 200 106 L 200 104 198 104 L 196 104 196 102 L 196 100 194 100 L 192 100 192 102 M 172 114 L 172 116 168 116 L 164 116 164 130 L 164 144 170 144 L 176 144 176 142 L 176 140 184 140 L 192 140 192 128 L 192 116 190 116 L 188 116 188 114 L 188 112 180 112 L 172 112 172 114 M 104 130 L 104 132 96 132 L 88 132 88 148 L 88 164 94 164 L 100 164 100 162 L 100 160 108 160 L 116 160 116 158 L 116 156 118 156 L 120 156 120 142 L 120 128 112 128 L 104 128 104 130 M 96 138 L 96 140 94 140 L 92 140 92 142 L 92 144 96 144 L 100 144 100 142 L 100 140 102 140 L 104 140 104 138 L 104 136 100 136 L 96 136 96 138 M 140 146 L 140 148 138 148 L 136 148 136 154 L 136 160 144 160 L 152 160 152 152 L 152 144 146 144 L 140 144 140 146 M 216 186 L 216 188 210 188 L 204 188 204 190 L 204 192 198 192 L 192 192 192 194 L 192 196 186 196 L 180 196 180 198 L 180 200 178 200 L 176 200 176 210 L 176 220 178 220 L 180 220 180 218 L 180 216 186 216 L 192 216 192 214 L 192 212 196 212 L 200 212 200 210 L 200 208 206 208 L 212 208 212 206 L 212 204 216 204 L 220 204 220 194 L 220 184 218 184 L 216 184 216 186" stroke="none" fill="#d7d7d7" fill-rule="evenodd"/><path d="M 180 114 L 180 116 184 116 L 188 116 188 114 L 188 112 184 112 L 180 112 180 114 M 164 122 L 164 128 170 128 L 176 128 176 126 L 176 124 178 124 L 180 124 180 122 L 180 120 178 120 L 176 120 176 122 L 176 124 172 124 L 168 124 168 122 L 168 120 170 120 L 172 120 172 118 L 172 116 168 116 L 164 116 164 122 M 112 130 L 112 132 114 132 L 116 132 116 130 L 116 128 114 128 L 112 128 112 130 M 96 134 L 96 136 100 136 L 104 136 104 134 L 104 132 100 132 L 96 132 96 134 M 88 154 L 88 160 90 160 L 92 160 92 154 L 92 148 90 148 L 88 148 88 154" stroke="none" fill="#393939" fill-rule="evenodd"/><path d="M 136 50 L 136 72 138 72 L 140 72 140 50 L 140 28 138 28 L 136 28 136 50 M 84 106 L 84 108 86 108 L 88 108 88 106 L 88 104 86 104 L 84 104 84 106" stroke="none" fill="#b8779d" fill-rule="evenodd"/><path d="M 172 116 L 172 120 174 120 L 176 120 176 118 L 176 116 178 116 L 180 116 180 114 L 180 112 176 112 L 172 112 172 116 M 104 130 L 104 132 108 132 L 112 132 112 130 L 112 128 108 128 L 104 128 104 130 M 116 142 L 116 156 110 156 L 104 156 104 158 L 104 160 110 160 L 116 160 116 158 L 116 156 118 156 L 120 156 120 142 L 120 128 118 128 L 116 128 116 142 M 88 134 L 88 136 90 136 L 92 136 92 138 L 92 140 94 140 L 96 140 96 136 L 96 132 92 132 L 88 132 88 134 M 100 142 L 100 144 102 144 L 104 144 104 142 L 104 140 102 140 L 100 140 100 142 M 164 142 L 164 144 166 144 L 168 144 168 142 L 168 140 166 140 L 164 140 164 142 M 140 146 L 140 148 142 148 L 144 148 144 146 L 144 144 142 144 L 140 144 140 146 M 88 162 L 88 164 94 164 L 100 164 100 162 L 100 160 94 160 L 88 160 88 162" stroke="none" fill="#847d82" fill-rule="evenodd"/><path d="M 132 4 L 132 8 130 8 L 128 8 128 44 L 128 80 126 80 L 124 80 124 82 L 124 84 116 84 L 108 84 108 78 L 108 72 106 72 L 104 72 104 60 L 104 48 102 48 L 100 48 100 36 L 100 24 98 24 L 96 24 96 18 L 96 12 88 12 L 80 12 80 14 L 80 16 72 16 L 64 16 64 28 L 64 40 66 40 L 68 40 68 50 L 68 60 70 60 L 72 60 72 70 L 72 80 74 80 L 76 80 76 86 L 76 92 70 92 L 64 92 64 94 L 64 96 54 96 L 44 96 44 98 L 44 100 38 100 L 32 100 32 108 L 32 116 34 116 L 36 116 36 144 L 36 172 34 172 L 32 172 32 184 L 32 196 34 196 L 36 196 36 200 L 36 204 38 204 L 40 204 40 206 L 40 208 42 208 L 44 208 44 210 L 44 212 46 212 L 48 212 48 214 L 48 216 50 216 L 52 216 52 218 L 52 220 54 220 L 56 220 56 222 L 56 224 58 224 L 60 224 60 226 L 60 228 62 228 L 64 228 64 232 L 64 236 66 236 L 68 236 68 238 L 68 240 70 240 L 72 240 72 242 L 72 244 74 244 L 76 244 76 246 L 76 248 78 248 L 80 248 80 250 L 80 252 82 252 L 84 252 84 254 L 84 256 90 256 L 96 256 96 254 L 96 252 100 252 L 104 252 104 250 L 104 248 110 248 L 116 248 116 246 L 116 244 120 244 L 124 244 124 242 L 124 240 130 240 L 136 240 136 238 L 136 236 142 236 L 148 236 148 224 L 148 212 154 212 L 160 212 160 214 L 160 216 164 216 L 168 216 168 218 L 168 220 170 220 L 172 220 172 222 L 172 224 176 224 L 180 224 180 222 L 180 220 186 220 L 192 220 192 218 L 192 216 196 216 L 200 216 200 214 L 200 212 206 212 L 212 212 212 210 L 212 208 218 208 L 224 208 224 194 L 224 180 222 180 L 220 180 220 178 L 220 176 218 176 L 216 176 216 174 L 216 172 212 172 L 208 172 208 170 L 208 168 206 168 L 204 168 204 134 L 204 100 202 100 L 200 100 200 98 L 200 96 196 96 L 192 96 192 94 L 192 92 186 92 L 180 92 180 90 L 180 88 176 88 L 172 88 172 86 L 172 84 168 84 L 164 84 164 82 L 164 80 160 80 L 156 80 156 68 L 156 56 158 56 L 160 56 160 28 L 160 0 146 0 L 132 0 132 4 M 136 6 L 136 8 134 8 L 132 8 132 44 L 132 80 130 80 L 128 80 128 82 L 128 84 126 84 L 124 84 124 86 L 124 88 116 88 L 108 88 108 86 L 108 84 106 84 L 104 84 104 78 L 104 72 102 72 L 100 72 100 60 L 100 48 98 48 L 96 48 96 36 L 96 24 94 24 L 92 24 92 20 L 92 16 86 16 L 80 16 80 18 L 80 20 74 20 L 68 20 68 30 L 68 40 70 40 L 72 40 72 50 L 72 60 74 60 L 76 60 76 70 L 76 80 78 80 L 80 80 80 86 L 80 92 78 92 L 76 92 76 94 L 76 96 70 96 L 64 96 64 98 L 64 100 54 100 L 44 100 44 102 L 44 104 40 104 L 36 104 36 110 L 36 116 38 116 L 40 116 40 144 L 40 172 38 172 L 36 172 36 184 L 36 196 38 196 L 40 196 40 200 L 40 204 42 204 L 44 204 44 206 L 44 208 46 208 L 48 208 48 210 L 48 212 50 212 L 52 212 52 214 L 52 216 54 216 L 56 216 56 218 L 56 220 58 220 L 60 220 60 222 L 60 224 62 224 L 64 224 64 226 L 64 228 66 228 L 68 228 68 232 L 68 236 70 236 L 72 236 72 238 L 72 240 74 240 L 76 240 76 242 L 76 244 78 244 L 80 244 80 246 L 80 248 82 248 L 84 248 84 250 L 84 252 90 252 L 96 252 96 250 L 96 248 100 248 L 104 248 104 246 L 104 244 110 244 L 116 244 116 242 L 116 240 120 240 L 124 240 124 238 L 124 236 130 236 L 136 236 136 234 L 136 232 140 232 L 144 232 144 222 L 144 212 146 212 L 148 212 148 210 L 148 208 154 208 L 160 208 160 210 L 160 212 164 212 L 168 212 168 214 L 168 216 170 216 L 172 216 172 218 L 172 220 176 220 L 180 220 180 218 L 180 216 186 216 L 192 216 192 214 L 192 212 196 212 L 200 212 200 210 L 200 208 206 208 L 212 208 212 206 L 212 204 216 204 L 220 204 220 192 L 220 180 218 180 L 216 180 216 178 L 216 176 212 176 L 208 176 208 174 L 208 172 206 172 L 204 172 204 170 L 204 168 202 168 L 200 168 200 134 L 200 100 196 100 L 192 100 192 98 L 192 96 186 96 L 180 96 180 94 L 180 92 176 92 L 172 92 172 90 L 172 88 168 88 L 164 88 164 86 L 164 84 160 84 L 156 84 156 82 L 156 80 154 80 L 152 80 152 68 L 152 56 154 56 L 156 56 156 30 L 156 4 146 4 L 136 4 136 6 M 176 118 L 176 120 178 120 L 180 120 180 122 L 180 124 178 124 L 176 124 176 126 L 176 128 170 128 L 164 128 164 134 L 164 140 172 140 L 180 140 180 138 L 180 136 184 136 L 188 136 188 126 L 188 116 182 116 L 176 116 176 118 M 104 138 L 104 144 98 144 L 92 144 92 140 L 92 136 90 136 L 88 136 88 142 L 88 148 90 148 L 92 148 92 154 L 92 160 98 160 L 104 160 104 158 L 104 156 110 156 L 116 156 116 144 L 116 132 110 132 L 104 132 104 138" stroke="none" fill="#040404" fill-rule="evenodd"/><path d="M 152 48 L 152 56 154 56 L 156 56 156 48 L 156 40 154 40 L 152 40 152 48 M 96 52 L 96 56 98 56 L 100 56 100 52 L 100 48 98 48 L 96 48 96 52 M 100 78 L 100 84 102 84 L 104 84 104 78 L 104 72 102 72 L 100 72 100 78 M 152 82 L 152 84 154 84 L 156 84 156 82 L 156 80 154 80 L 152 80 152 82 M 136 98 L 136 100 142 100 L 148 100 148 98 L 148 96 142 96 L 136 96 136 98 M 104 102 L 104 104 98 104 L 92 104 92 106 L 92 108 98 108 L 104 108 104 106 L 104 104 106 104 L 108 104 108 102 L 108 100 106 100 L 104 100 104 102 M 188 126 L 188 136 184 136 L 180 136 180 138 L 180 140 186 140 L 192 140 192 128 L 192 116 190 116 L 188 116 188 126 M 168 142 L 168 144 172 144 L 176 144 176 142 L 176 140 172 140 L 168 140 168 142 M 148 150 L 148 156 144 156 L 140 156 140 158 L 140 160 146 160 L 152 160 152 152 L 152 144 150 144 L 148 144 148 150" stroke="none" fill="#d7aec5" fill-rule="evenodd"/><path d="M 140 48 L 140 72 138 72 L 136 72 136 84 L 136 96 144 96 L 152 96 152 68 L 152 40 154 40 L 156 40 156 32 L 156 24 148 24 L 140 24 140 48 M 88 38 L 88 40 84 40 L 80 40 80 54 L 80 68 82 68 L 84 68 84 82 L 84 96 86 96 L 88 96 88 102 L 88 108 90 108 L 92 108 92 106 L 92 104 98 104 L 104 104 104 94 L 104 84 102 84 L 100 84 100 70 L 100 56 98 56 L 96 56 96 46 L 96 36 92 36 L 88 36 88 38 M 144 146 L 144 148 140 148 L 136 148 136 154 L 136 160 138 160 L 140 160 140 158 L 140 156 144 156 L 148 156 148 150 L 148 144 146 144 L 144 144 144 146" stroke="none" fill="#d5579e" fill-rule="evenodd"/><path d="M 0 128 L 0 256 42 256 L 84 256 84 254 L 84 252 82 252 L 80 252 80 250 L 80 248 82 248 L 84 248 84 238 L 84 228 86 228 L 88 228 88 226 L 88 224 94 224 L 100 224 100 222 L 100 220 106 220 L 112 220 112 218 L 112 216 118 216 L 124 216 124 214 L 124 212 130 212 L 136 212 136 210 L 136 208 140 208 L 144 208 144 204 L 144 200 140 200 L 136 200 136 198 L 136 196 134 196 L 132 196 132 194 L 132 192 130 192 L 128 192 128 194 L 128 196 122 196 L 116 196 116 198 L 116 200 110 200 L 104 200 104 202 L 104 204 98 204 L 92 204 92 206 L 92 208 86 208 L 80 208 80 210 L 80 212 78 212 L 76 212 76 200 L 76 188 74 188 L 72 188 72 158 L 72 128 74 128 L 76 128 76 126 L 76 124 84 124 L 92 124 92 122 L 92 120 102 120 L 112 120 112 118 L 112 116 122 116 L 132 116 132 114 L 132 112 140 112 L 148 112 148 110 L 148 108 158 108 L 168 108 168 106 L 168 104 176 104 L 184 104 184 102 L 184 100 188 100 L 192 100 192 98 L 192 96 196 96 L 200 96 200 98 L 200 100 198 100 L 196 100 196 102 L 196 104 198 104 L 200 104 200 102 L 200 100 202 100 L 204 100 204 134 L 204 168 202 168 L 200 168 200 170 L 200 172 196 172 L 192 172 192 174 L 192 176 186 176 L 180 176 180 178 L 180 180 174 180 L 168 180 168 182 L 168 184 162 184 L 156 184 156 196 L 156 208 158 208 L 160 208 160 210 L 160 212 154 212 L 148 212 148 224 L 148 236 142 236 L 136 236 136 238 L 136 240 130 240 L 124 240 124 242 L 124 244 120 244 L 116 244 116 246 L 116 248 110 248 L 104 248 104 250 L 104 252 100 252 L 96 252 96 254.006 L 96 256.012 176.250 255.756 L 256.500 255.500 256.754 127.750 L 257.008 0 208.504 0 L 160 0 160 28 L 160 56 158 56 L 156 56 156 68 L 156 80 160 80 L 164 80 164 82 L 164 84 162 84 L 160 84 160 88 L 160 92 158 92 L 156 92 156 94 L 156 96 152 96 L 148 96 148 98 L 148 100 140 100 L 132 100 132 90 L 132 80 130 80 L 128 80 128 44 L 128 8 130 8 L 132 8 132 26 L 132 44 134 44 L 136 44 136 26 L 136 8 134 8 L 132 8 132 4 L 132 0 66 0 L 0 0 0 128 M 0.485 128.500 L 0.485 256.500 0.750 192.172 L 1.015 127.845 0.750 64.172 L 0.485 0.500 0.485 128.500 M 80 14 L 80 16 72 16 L 64 16 64 28 L 64 40 66 40 L 68 40 68 50 L 68 60 70 60 L 72 60 72 70 L 72 80 74 80 L 76 80 76 86 L 76 92 70 92 L 64 92 64 94 L 64 96 54 96 L 44 96 44 98 L 44 100 38 100 L 32 100 32 108 L 32 116 34 116 L 36 116 36 144 L 36 172 34 172 L 32 172 32 184 L 32 196 34 196 L 36 196 36 200 L 36 204 38 204 L 40 204 40 206 L 40 208 42 208 L 44 208 44 210 L 44 212 46 212 L 48 212 48 214 L 48 216 50 216 L 52 216 52 218 L 52 220 54 220 L 56 220 56 222 L 56 224 58 224 L 60 224 60 226 L 60 228 62 228 L 64 228 64 232 L 64 236 66 236 L 68 236 68 238 L 68 240 70 240 L 72 240 72 242 L 72 244 74 244 L 76 244 76 246 L 76 248 78 248 L 80 248 80 246 L 80 244 78 244 L 76 244 76 242 L 76 240 74 240 L 72 240 72 238 L 72 236 70 236 L 68 236 68 232 L 68 228 66 228 L 64 228 64 226 L 64 224 62 224 L 60 224 60 222 L 60 220 58 220 L 56 220 56 218 L 56 216 54 216 L 52 216 52 214 L 52 212 50 212 L 48 212 48 210 L 48 208 46 208 L 44 208 44 206 L 44 204 42 204 L 40 204 40 200 L 40 196 38 196 L 36 196 36 184 L 36 172 38 172 L 40 172 40 144 L 40 116 38 116 L 36 116 36 110 L 36 104 40 104 L 44 104 44 102 L 44 100 54 100 L 64 100 64 98 L 64 96 72 96 L 80 96 80 102 L 80 108 92 108 L 104 108 104 106 L 104 104 108 104 L 112 104 112 96 L 112 88 118 88 L 124 88 124 86 L 124 84 126 84 L 128 84 128 82 L 128 80 126 80 L 124 80 124 82 L 124 84 116 84 L 108 84 108 78 L 108 72 106 72 L 104 72 104 60 L 104 48 102 48 L 100 48 100 36 L 100 24 98 24 L 96 24 96 18 L 96 12 88 12 L 80 12 80 14 M 68 36 L 68 40 70 40 L 72 40 72 36 L 72 32 70 32 L 68 32 68 36 M 72 56 L 72 60 74 60 L 76 60 76 56 L 76 52 74 52 L 72 52 72 56 M 76 78 L 76 80 78 80 L 80 80 80 78 L 80 76 78 76 L 76 76 76 78 M 164 86 L 164 88 168 88 L 172 88 172 90 L 172 92 176 92 L 180 92 180 94 L 180 96 186 96 L 192 96 192 94 L 192 92 186 92 L 180 92 180 90 L 180 88 176 88 L 172 88 172 86 L 172 84 168 84 L 164 84 164 86 M 196 110 L 196 112 198 112 L 200 112 200 110 L 200 108 198 108 L 196 108 196 110 M 204 170 L 204 172 206 172 L 208 172 208 174 L 208 176 212 176 L 216 176 216 178 L 216 180 218 180 L 220 180 220 182 L 220 184 218 184 L 216 184 216 186 L 216 188 210 188 L 204 188 204 190 L 204 192 198 192 L 192 192 192 194 L 192 196 186 196 L 180 196 180 198 L 180 200 178 200 L 176 200 176 210 L 176 220 174 220 L 172 220 172 218 L 172 216 170 216 L 168 216 168 214 L 168 212 164 212 L 160 212 160 214 L 160 216 164 216 L 168 216 168 218 L 168 220 170 220 L 172 220 172 222 L 172 224 176 224 L 180 224 180 222 L 180 220 186 220 L 192 220 192 218 L 192 216 196 216 L 200 216 200 214 L 200 212 206 212 L 212 212 212 210 L 212 208 218 208 L 224 208 224 194 L 224 180 222 180 L 220 180 220 178 L 220 176 218 176 L 216 176 216 174 L 216 172 212 172 L 208 172 208 170 L 208 168 206 168 L 204 168 204 170" stroke="none" fill="#f9f9f9" fill-rule="evenodd"/><path d="M 136 16 L 136 28 138 28 L 140 28 140 26 L 140 24 148 24 L 156 24 156 14 L 156 4 146 4 L 136 4 136 16 M 80 18 L 80 20 74 20 L 68 20 68 24 L 68 28 70 28 L 72 28 72 40 L 72 52 74 52 L 76 52 76 44 L 76 36 82 36 L 88 36 88 34 L 88 32 92 32 L 96 32 96 28 L 96 24 94 24 L 92 24 92 20 L 92 16 86 16 L 80 16 80 18 M 76 66 L 76 72 78 72 L 80 72 80 66 L 80 60 78 60 L 76 60 76 66 M 132 82 L 132 100 134 100 L 136 100 136 82 L 136 64 134 64 L 132 64 132 82 M 104 92 L 104 100 106 100 L 108 100 108 102 L 108 104 110 104 L 112 104 112 96 L 112 88 110 88 L 108 88 108 86 L 108 84 106 84 L 104 84 104 92 M 152 90 L 152 96 154 96 L 156 96 156 94 L 156 92 158 92 L 160 92 160 88 L 160 84 156 84 L 152 84 152 90 M 80 90 L 80 92 78 92 L 76 92 76 94 L 76 96 78 96 L 80 96 80 102 L 80 108 82 108 L 84 108 84 98 L 84 88 82 88 L 80 88 80 90 M 192 102 L 192 104 184 104 L 176 104 176 106 L 176 108 166 108 L 156 108 156 110 L 156 112 148 112 L 140 112 140 114 L 140 116 130 116 L 120 116 120 118 L 120 120 112 120 L 104 120 104 122 L 104 124 94 124 L 84 124 84 126 L 84 128 78 128 L 72 128 72 140 L 72 152 74 152 L 76 152 76 182 L 76 212 78 212 L 80 212 80 210 L 80 208 86 208 L 92 208 92 206 L 92 204 98 204 L 104 204 104 202 L 104 200 110 200 L 116 200 116 198 L 116 196 122 196 L 128 196 128 194 L 128 192 130 192 L 132 192 132 194 L 132 196 134 196 L 136 196 136 198 L 136 200 140 200 L 144 200 144 202 L 144 204 146 204 L 148 204 148 206 L 148 208 146 208 L 144 208 144 210 L 144 212 138 212 L 132 212 132 214 L 132 216 128 216 L 124 216 124 218 L 124 220 118 220 L 112 220 112 222 L 112 224 106 224 L 100 224 100 226 L 100 228 94 228 L 88 228 88 240 L 88 252 92 252 L 96 252 96 250 L 96 248 100 248 L 104 248 104 246 L 104 244 110 244 L 116 244 116 242 L 116 240 120 240 L 124 240 124 238 L 124 236 130 236 L 136 236 136 234 L 136 232 140 232 L 144 232 144 222 L 144 212 146 212 L 148 212 148 210 L 148 208 152 208 L 156 208 156 196 L 156 184 162 184 L 168 184 168 182 L 168 180 174 180 L 180 180 180 178 L 180 176 186 176 L 192 176 192 174 L 192 172 196 172 L 200 172 200 142 L 200 112 198 112 L 196 112 196 110 L 196 108 198 108 L 200 108 200 106 L 200 104 198 104 L 196 104 196 102 L 196 100 194 100 L 192 100 192 102 M 172 114 L 172 116 168 116 L 164 116 164 130 L 164 144 170 144 L 176 144 176 142 L 176 140 184 140 L 192 140 192 128 L 192 116 190 116 L 188 116 188 114 L 188 112 180 112 L 172 112 172 114 M 104 130 L 104 132 96 132 L 88 132 88 148 L 88 164 94 164 L 100 164 100 162 L 100 160 108 160 L 116 160 116 158 L 116 156 118 156 L 120 156 120 142 L 120 128 112 128 L 104 128 104 130 M 96 138 L 96 140 94 140 L 92 140 92 142 L 92 144 96 144 L 100 144 100 142 L 100 140 102 140 L 104 140 104 138 L 104 136 100 136 L 96 136 96 138 M 140 146 L 140 148 138 148 L 136 148 136 154 L 136 160 144 160 L 152 160 152 152 L 152 144 146 144 L 140 144 140 146 M 216 186 L 216 188 210 188 L 204 188 204 190 L 204 192 198 192 L 192 192 192 194 L 192 196 186 196 L 180 196 180 198 L 180 200 178 200 L 176 200 176 210 L 176 220 178 220 L 180 220 180 218 L 180 216 186 216 L 192 216 192 214 L 192 212 196 212 L 200 212 200 210 L 200 208 206 208 L 212 208 212 206 L 212 204 216 204 L 220 204 220 194 L 220 184 218 184 L 216 184 216 186" stroke="none" fill="#d7d7d7" fill-rule="evenodd"/></svg>